# AST/ASF file generated using VICON BodyLanguage
# -----------------------------------------------
:version 1.10
:name VICON
:units
  mass 1.0
  length 0.45
  angle deg
:documentation
   .ast/.asf automatically generated from VICON data using
   VICON BodyBuilder and BodyLanguage model FoxedUp or BRILLIANT.MOD
:root
   order TX TY TZ RX RY RZ
   axis XYZ
   position 0 0 0  
   orientation 0 0 0 
:bonedata
  begin
     id 1 
     name lhipjoint
     direction 0.702568 -0.596508 0.388042 
     length 2.56661 
     axis 0 0 0  XYZ
  end
  begin
     id 2 
     name lfemur
     direction 0.34202 -0.939693 0  
     length 6.58374  
     axis 0 0 20  XYZ
    dof rx ry rz
    limits (-160.0 20.0)
           (-70.0 70.0)
           (-60.0 70.0)
  end
  begin
     id 3 
     name ltibia
     direction 0.34202 -0.939693 0   
     length 6.62538   
     axis 0 0 20   XYZ
    dof rx
    limits (-10.0 170.0)
  end
  begin
     id 4 
     name lfoot
     direction 0.10455 -0.287249 0.952133   
     length 2.26699   
     axis -90 7.62852e-016 20   XYZ
    dof rx rz
    limits (-45.0 90.0)
           (-70.0 20.0)
  end
  begin
     id 5 
     name ltoes
     direction 1.53572e-011 -4.22322e-011 1   
     length 1.12949   
     axis -90 7.62852e-016 20   XYZ
    dof rx
    limits (-90.0 20.0)
  end
  begin
     id 6 
     name rhipjoint
     direction -0.728055 -0.574632 0.373811   
     length 2.66432  
     axis 0 0 0  XYZ 
  end
  begin
     id 7 
     name rfemur
     direction -0.34202 -0.939693 0   
     length 6.66732   
     axis 0 0 -20   XYZ
    dof rx ry rz
    limits (-160.0 20.0)
           (-70.0 70.0)
           (-70.0 60.0)
  end
  begin
     id 8 
     name rtibia
     direction -0.34202 -0.939693 0   
     length 6.59288   
     axis 0 0 -20   XYZ
    dof rx
    limits (-10.0 170.0)
 end
 begin
     id 9 
     name rfoot
     direction -0.119193 -0.327479 0.93731   
     length 2.38061  
     axis -90 -7.62852e-016 -20   XYZ
    dof rx rz
    limits (-45.0 90.0)
           (-20.0 70.0)
  end
  begin
     id 10 
     name rtoes
     direction -1.53547e-011 -4.21827e-011 1   
     length 1.17899   
     axis -90 -7.62852e-016 -20   XYZ
    dof rx
    limits (-90.0 20.0)
  end
  begin
     id 11 
     name lowerback
     direction -0.000416114 0.999912 -0.0132284   
     length 2.12109   
     axis 0 0 0   XYZ
    dof rx ry rz
    limits (-20.0 45.0)
           (-30.0 30.0)
           (-30.0 30.0)
  end
  begin
     id 12 
     name upperback
     direction -0.00136371 0.99809 0.0617608   
     length 2.10067   
     axis 0 0 0   XYZ
    dof rx ry rz
    limits (-20.0 45.0)
           (-30.0 30.0)
           (-30.0 30.0)
  end
  begin
     id 13 
     name thorax
     direction -3.43026e-005 0.997776 0.0666515   
     length 2.10618   
     axis 0 0 0   XYZ
    dof rx ry rz
    limits (-20.0 45.0)
           (-30.0 30.0)
           (-30.0 30.0)
  end
  begin
     id 14 
     name lowerneck
     direction 0.0398646 0.998418 0.0396592   
     length 1.83817   
     axis 0 0 0   XYZ
    dof rx ry rz
    limits (-20.0 45.0)
           (-30.0 30.0)
           (-30.0 30.0)
  end
  begin
     id 15 
     name upperneck
     direction -0.0367268 0.961527 -0.272244   
     length 1.81975   
     axis 0 0 0   XYZ
    dof rx ry rz
    limits (-20.0 45.0)
           (-30.0 30.0)
           (-30.0 30.0)
  end
  begin
     id 16
     name head
     direction -0.0182665 0.99536 -0.0944669  
     length 1.86026  
     axis 0 0 0   XYZ
    dof rx ry rz
    limits (-20.0 45.0)
           (-30.0 30.0)
           (-30.0 30.0)
  end
  begin
     id 17 
     name lclavicle
     direction 0.924239 0.361045 0.124212  
     length 3.26878  
     axis 0 0 0   XYZ
    dof ry rz
    limits (-20.0 10.0)
           (0.0 20.0)
  end
  begin
     id 18 
     name lhumerus
     direction 1 -4.48968e-011 -2.56583e-027   
     length 4.58538   
     axis 180 -30 -90   XYZ
    dof rx ry rz
    limits (-60.0 90.0)
           (-90.0 90.0)
           (-90.0 90.0)
  end
  begin
     id 19
     name lradius
     direction 1 -4.4898e-011 -5.50375e-027   
     length 2.68935   
     axis 180 -30 -90   XYZ
    dof rx
    limits (-10.0 170.0)
  end
  begin
     id 20
     name lwrist
     direction 1 -4.48939e-011 -1.48955e-026   
     length 1.34468   
     axis 9.0955e-015 90 90   XYZ
    dof ry
    limits (-180.0 0.0)
 end
  begin
     id 21 
     name lhand
     direction 1 -4.48936e-011 -2.97907e-026   
     length 0.585058   
     axis 1.90115e-014 90 90   XYZ
    dof rx rz
    limits (-90.0 90.0)
           (-45.0 45.0)
  end
  begin
     id 22 
     name lfingers
     direction 1 -4.49082e-011 -5.96235e-026   
     length 0.471689   
     axis 3.80223e-014 90 90   XYZ
    dof rx
    limits (0.0 90.0)
  end
  begin
     id 23
     name lthumb
     direction 0.707107 -6.3489e-011 0.707107   
     length 0.677253   
     axis -90 45 -3.84942e-014   XYZ
    dof rx rz
    limits (-45.0 45.0)
           (-45.0 45.0)
  end
  begin
     id 24 
     name rclavicle
     direction -0.923098 0.371783 0.0983239   
     length 3.19656  
     axis 0 0 0   XYZ 
    dof ry rz
    limits (-10.0 20.0)
           (-20.0 0.0)
  end
  begin
     id 25 
     name rhumerus
     direction -1 -4.48976e-011 -2.5492e-027  
     length 4.4745   
     axis 180 30 90   XYZ
    dof rx ry rz
    limits (-90.0 60.0)
           (-90.0 90.0)
           (-90.0 90.0)
  end
  begin
     id 26 
     name rradius
     direction -1 -4.48941e-011 -4.36555e-027   
     length 2.93896   
     axis 180 30 90   XYZ
    dof rx
    limits (-10.0 170.0)
  end
  begin
     id 27 
     name rwrist
     direction -1 -4.49044e-011 -1.49032e-026   
     length 1.46948   
     axis 9.0955e-015 -90 -90   XYZ
    dof ry
    limits (-180.0 0.0)
  end
  begin
     id 28
     name rhand
     direction -1 -4.48826e-011 -2.97749e-026   
     length 0.405092   
     axis 1.90115e-014 -90 -90   XYZ
    dof rx rz
    limits (-90.0 90.0)
           (-45.0 45.0)
  end
  begin
     id 29
     name rfingers
     direction -1 -4.49209e-011 -5.96602e-026   
     length 0.326596   
     axis 3.80223e-014 -90 -90   XYZ
    dof rx
    limits (0.0 90.0)
  end
  begin
     id 30
     name rthumb
     direction -0.707107 -6.34776e-011 0.707107   
     length 0.468928   
     axis -90 -45 3.84942e-014   XYZ
    dof rx rz
    limits (-45.0 45.0)
           (-45.0 45.0)
  end
:hierarchy
  begin
    root lhipjoint rhipjoint lowerback
    lhipjoint lfemur
    lfemur ltibia
    ltibia lfoot
    lfoot ltoes
    rhipjoint rfemur
    rfemur rtibia
    rtibia rfoot
    rfoot rtoes
    lowerback upperback
    upperback thorax
    thorax lowerneck lclavicle rclavicle
    lowerneck upperneck
    upperneck head
    lclavicle lhumerus
    lhumerus lradius
    lradius lwrist
    lwrist lhand lthumb
    lhand lfingers
    rclavicle rhumerus
    rhumerus rradius
    rradius rwrist
    rwrist rhand rthumb
    rhand rfingers
  end

#!OML:ASF H:\Punching\Project 1\Capture day 1\Session 1\female.ASF
:FULLY-SPECIFIED
:DEGREES
307
root 0.932877 15.5151 6.89975 10.6314 -10.9765 -0.564538
lowerback 0.762833 -1.91976 3.3098
upperback -5.96091 -2.39251 1.05008
thorax -6.72402 -1.34241 -0.593796
lowerneck -1.29659 11.2393 16.679
upperneck 22.3202 17.632 -15.2146
head 10.1753 8.4937 -6.19197
rclavicle 3.08737e-015 1.03368e-014
rhumerus -14.3088 39.0229 -105.245
rradius 72.6009
rwrist -22.7458
rhand -11.1729 -10.3817
rfingers 7.12502
rthumb 14.8539 -39.8293
lclavicle 3.08737e-015 1.03368e-014
lhumerus -3.48712 -48.2417 98.6694
lradius 112.159
lwrist 46.0652
lhand -8.51225 24.1866
lfingers 7.12502
lthumb 17.4159 53.4263
rfemur -16.1808 4.24859 19.3983
rtibia 32.1491
rfoot -23.5158 -13.8137
rtoes -6.18195
lfemur -30.9901 3.43632 -11.1852
ltibia 47.1319
lfoot -13.0993 11.4643
ltoes -7.21327
308
root 0.960025 15.5135 6.94417 10.6448 -11.1336 -0.56588
lowerback 0.843369 -2.05637 3.29136
upperback -5.96753 -2.57282 1.06386
thorax -6.78318 -1.43094 -0.552939
lowerneck -1.1952 11.4225 16.7756
upperneck 22.1655 17.9037 -15.3129
head 10.1733 8.6255 -6.2007
rclavicle 4.94477e-015 7.55382e-015
rhumerus -13.9363 40.3501 -105.5
rradius 73.6345
rwrist -20.5846
rhand -10.6998 -9.22584
rfingers 7.12502
rthumb 15.3097 -38.6392
lclavicle 4.94477e-015 7.55382e-015
lhumerus -0.477758 -48.8564 96.7381
lradius 112.673
lwrist 46.4606
lhand -8.83842 24.4056
lfingers 7.12502
lthumb 17.102 53.6729
rfemur -16.0199 4.28737 19.2601
rtibia 32.0436
rfoot -23.4281 -13.8319
rtoes -6.23289
lfemur -31.1083 3.1337 -10.6882
ltibia 45.3407
lfoot -13.0269 12.1135
ltoes -6.62912
309
root 0.988507 15.512 6.99128 10.6674 -11.2945 -0.566203
lowerback 0.912034 -2.20144 3.27782
upperback -5.984 -2.76412 1.08753
thorax -6.84605 -1.52499 -0.503388
lowerneck -1.03289 11.6045 16.8558
upperneck 21.961 18.1871 -15.4552
head 10.1473 8.76223 -6.22372
rclavicle 1.28092e-014 1.74931e-014
rhumerus -13.654 41.6829 -105.702
rradius 74.6547
rwrist -18.2146
rhand -10.2785 -8.22414
rfingers 7.12502
rthumb 15.7154 -37.606
lclavicle 1.28092e-014 1.74931e-014
lhumerus 2.57353 -49.2884 94.5331
lradius 113.183
lwrist 46.6622
lhand -9.02133 24.6082
lfingers 7.12502
lthumb 16.9259 53.8906
rfemur -15.8545 4.3452 19.1101
rtibia 31.9217
rfoot -23.3474 -13.8577
rtoes -6.29344
lfemur -31.1707 2.76004 -10.1643
ltibia 43.4013
lfoot -12.9419 12.8303
ltoes -6.02586
310
root 1.01833 15.5105 7.04133 10.6988 -11.4656 -0.563674
lowerback 0.971494 -2.34005 3.27622
upperback -6.01293 -2.94676 1.10554
thorax -6.91742 -1.61578 -0.466468
lowerneck -0.830506 11.775 16.9398
upperneck 21.7315 18.462 -15.6243
head 10.1072 8.8963 -6.26049
rclavicle 6.1996e-015 7.55382e-015
rhumerus -13.4632 42.9681 -105.848
rradius 75.6641
rwrist -15.6172
rhand -9.95905 -7.3699
rfingers 7.12502
rthumb 16.0231 -36.7273
lclavicle 6.1996e-015 7.55382e-015
lhumerus 5.62627 -49.5494 92.0921
lradius 113.699
lwrist 46.6375
lhand -9.0592 24.7599
lfingers 7.12502
lthumb 16.8894 54.0454
rfemur -15.6793 4.42364 18.9459
rtibia 31.7736
rfoot -23.2736 -13.8891
rtoes -6.37655
lfemur -31.1789 2.31608 -9.61419
ltibia 41.3442
lfoot -12.8196 13.6046
ltoes -5.43319
311
root 1.04943 15.5093 7.09448 10.7423 -11.6496 -0.56522
lowerback 1.02113 -2.45911 3.29135
upperback -6.05472 -3.10329 1.11207
thorax -6.99757 -1.69515 -0.452274
lowerneck -0.615958 11.9263 17.0481
upperneck 21.5059 18.7133 -15.8081
head 10.0669 9.02137 -6.31119
rclavicle 1.34739e-014 -1.98785e-014
rhumerus -13.363 44.154 -105.924
rradius 76.6635
rwrist -12.7947
rhand -9.72533 -6.64785
rfingers 7.12502
rthumb 16.2481 -35.987
lclavicle 1.34739e-014 -1.98785e-014
lhumerus 8.65459 -49.6496 89.4412
lradius 114.236
lwrist 46.3811
lhand -8.94599 24.8189
lfingers 7.12502
lthumb 16.9984 54.0951
rfemur -15.491 4.5245 18.7754
rtibia 31.591
rfoot -23.2043 -13.9305
rtoes -6.49268
lfemur -31.1418 1.80282 -9.02768
ltibia 39.203
lfoot -12.6089 14.4222
ltoes -4.86914
312
root 1.08189 15.5088 7.15111 10.7963 -11.8437 -0.5702
lowerback 1.05325 -2.57458 3.3059
upperback -6.11421 -3.25476 1.13199
thorax -7.08564 -1.77185 -0.424014
lowerneck -0.35301 12.0698 17.1445
upperneck 21.2807 18.9635 -16.0037
head 10.0183 9.14741 -6.36783
rclavicle -2.49661e-014 1.98785e-015
rhumerus -13.401 45.2751 -105.947
rradius 77.6664
rwrist -9.81108
rhand -9.51341 -6.02802
rfingers 7.12502
rthumb 16.4522 -35.3504
lclavicle -2.49661e-014 1.98785e-015
lhumerus 11.5911 -49.511 86.6479
lradius 114.814
lwrist 45.9599
lhand -8.78415 24.7743
lfingers 7.12502
lthumb 17.1542 54.037
rfemur -15.2802 4.63864 18.5991
rtibia 31.3656
rfoot -23.1368 -13.9831
rtoes -6.65976
lfemur -31.0613 1.2101 -8.40306
ltibia 37.0104
lfoot -12.2638 15.2779
ltoes -4.29837
313
root 1.1157 15.509 7.21121 10.8631 -12.0488 -0.583514
lowerback 1.07569 -2.67641 3.32164
upperback -6.19442 -3.3874 1.16149
thorax -7.18922 -1.83935 -0.38721
lowerneck -0.0756735 12.2009 17.2381
upperneck 21.0914 19.2008 -16.189
head 9.97699 9.26883 -6.42425
rclavicle -5.55976e-014 -1.86858e-014
rhumerus -13.5756 46.2827 -105.907
rradius 78.6727
rwrist -6.74212
rhand -9.27923 -5.40801
rfingers 7.12502
rthumb 16.6776 -34.7115
lclavicle -5.55976e-014 -1.86858e-014
lhumerus 14.3925 -49.1184 83.7656
lradius 115.428
lwrist 45.3741
lhand -8.50063 24.6276
lfingers 7.12502
lthumb 17.4271 53.8664
rfemur -15.0464 4.76284 18.4222
rtibia 31.0929
rfoot -23.0641 -14.0432
rtoes -6.87299
lfemur -30.9462 0.538505 -7.733
ltibia 34.7999
lfoot -11.7464 16.1643
ltoes -3.70678
314
root 1.15092 15.5103 7.27474 10.9425 -12.2624 -0.602836
lowerback 1.0597 -2.7615 3.32073
upperback -6.27172 -3.49911 1.20771
thorax -7.26433 -1.89478 -0.327351
lowerneck 0.174178 12.3251 17.3184
upperneck 20.9437 19.4278 -16.3585
head 9.95131 9.38389 -6.47359
rclavicle 3.00662e-015 1.11319e-014
rhumerus -13.8243 47.1844 -105.745
rradius 79.6819
rwrist -3.70532
rhand -9.05254 -4.73738
rfingers 7.12502
rthumb 16.8959 -34.0224
lclavicle 3.00662e-015 1.11319e-014
lhumerus 17.0619 -48.4544 80.8285
lradius 116.062
lwrist 44.646
lhand -8.1343 24.3634
lfingers 7.12502
lthumb 17.7796 53.5706
rfemur -14.7857 4.89289 18.2419
rtibia 30.7653
rfoot -22.9803 -14.1081
rtoes -7.12794
lfemur -30.8059 -0.216953 -7.01815
ltibia 32.6039
lfoot -11.0556 17.0765
ltoes -3.06015
